<svg xmlns="http://www.w3.org/2000/svg" id="Layer_1" data-name="Layer 1" viewBox="0 0 1304.57 444.31"><defs><style>      .cls-1 {        fill: #4aa7d3;      }      .cls-2 {        fill: #009ed0;      }      .cls-3 {        fill: #8abcd7;      }      .cls-4 {        fill: #6fb2d6;      }      .cls-5 {        fill: #284570;      }    </style></defs><path class="cls-5" d="M226.92.16c-22.06-.3-41.91,1.64-59.56,5.81-17.66,4.18-32.86,10.24-45.61,18.17-.34.21-.66.45-.99.66C49.69,60.19.86,133.55.86,218.33l244.91.15c24.85.46,50.88-1.22,71.72-7.2,20.83-5.98,38.79-15.54,53.89-28.67,15.09-13.14,27.07-29.98,35.96-50.53,8.88-20.55,14.26-44.9,15.26-73.17L425.49,0l-198.56.16Z"></path><path class="cls-5" d="M493.67,124.34c-5.54-2.18-10.4-5.43-14.58-9.77-4.18-4.33-7.46-9.72-9.84-16.16-2.38-6.44-3.57-13.91-3.57-22.43v-7.29c0-8.46,1.2-15.93,3.61-22.39,2.4-6.46,5.72-11.86,9.96-16.19,4.23-4.33,9.14-7.59,14.73-9.77,5.59-2.18,11.53-3.27,17.85-3.27,3.96,0,7.69.31,11.2.94,3.51.63,6.75,1.55,9.73,2.78,2.98,1.23,5.66,2.77,8.04,4.62,2.38,1.85,4.51,4.01,6.39,6.46,1.88,2.46,3.48,5.22,4.81,8.3,1.33,3.08,2.32,6.45,2.97,10.11h-16.98c-.75-3.11-1.85-5.81-3.31-8.12-1.45-2.3-3.27-4.25-5.45-5.82-2.18-1.58-4.71-2.75-7.59-3.53-2.88-.78-6.12-1.16-9.73-1.16-4.11,0-8,.73-11.68,2.18-3.68,1.45-6.88,3.68-9.58,6.69-2.71,3.01-4.82,6.8-6.35,11.38-1.53,4.58-2.29,9.98-2.29,16.19v8.49c0,6.11.76,11.47,2.29,16.08,1.53,4.61,3.63,8.42,6.31,11.42,2.68,3.01,5.87,5.25,9.58,6.73,3.71,1.48,7.66,2.22,11.87,2.22,2.25,0,4.38-.18,6.39-.53,2-.35,3.87-.88,5.6-1.58,1.73-.7,3.32-1.56,4.77-2.59,1.45-1.03,2.75-2.24,3.91-3.64,1.15-1.4,2.17-2.96,3.04-4.66.88-1.7,1.62-3.61,2.22-5.71h16.98c-.85,3.66-1.97,7.03-3.34,10.11-1.38,3.08-3.03,5.86-4.96,8.34-1.93,2.48-4.09,4.65-6.5,6.5-2.4,1.85-5.09,3.39-8.04,4.62-2.96,1.23-6.16,2.15-9.62,2.78-3.46.63-7.24.94-11.35.94-6.11,0-11.94-1.09-17.47-3.27Z"></path><path class="cls-5" d="M639.41,126.86c-2.15,0-4.1-.19-5.82-.56-1.73-.38-3.26-.89-4.58-1.54-1.33-.65-2.47-1.47-3.42-2.44-.95-.98-1.75-2.07-2.4-3.27-1.15,1.3-2.58,2.48-4.28,3.53-1.7,1.05-3.58,1.93-5.64,2.63-2.05.7-4.23,1.25-6.54,1.65-2.3.4-4.68.6-7.14.6h-2.18c-4.01,0-7.81-.53-11.42-1.58-3.61-1.05-6.76-2.59-9.47-4.62-2.71-2.03-4.85-4.5-6.42-7.4-1.58-2.9-2.37-6.24-2.37-9.99s.61-7.03,1.84-9.96c1.23-2.93,3.07-5.43,5.52-7.51,2.45-2.08,5.5-3.69,9.13-4.85,3.63-1.15,7.85-1.75,12.66-1.8l22.92-.6v-5.03c0-2.35-.45-4.45-1.35-6.27-.9-1.83-2.12-3.36-3.64-4.58-1.53-1.23-3.28-2.14-5.26-2.74-1.98-.6-4.07-.9-6.27-.9h-1.43c-1.65,0-3.32.19-5,.56-1.68.38-3.17.91-4.47,1.62-1.3.7-2.45,1.52-3.46,2.44-1,.93-1.7,1.99-2.1,3.19h-16.16c.65-3.11,1.88-5.92,3.68-8.45,1.8-2.53,4.06-4.66,6.76-6.39,2.71-1.73,5.81-3.07,9.32-4.02,3.51-.95,7.26-1.43,11.27-1.43h1.58c4.56,0,8.79.64,12.7,1.92,3.91,1.28,7.3,3.13,10.18,5.56,2.88,2.43,5.13,5.45,6.76,9.05,1.63,3.61,2.44,7.74,2.44,12.4v31.18c0,2.46.59,4.28,1.77,5.49,1.18,1.2,2.92,1.8,5.22,1.8h2.48v12.32h-5.41ZM597.1,91.55c-2.2.1-4.17.44-5.9,1.01-1.73.58-3.21,1.37-4.43,2.37-1.23,1-2.15,2.2-2.78,3.61-.63,1.4-.94,2.96-.94,4.66,0,1.9.4,3.58,1.2,5.03.8,1.45,1.89,2.68,3.27,3.68,1.38,1,3.06,1.77,5.03,2.29,1.98.53,4.1.79,6.35.79h1.65c2.96,0,5.62-.38,8-1.13,2.38-.75,4.4-1.85,6.05-3.31,1.65-1.45,2.93-3.19,3.83-5.22.9-2.03,1.35-4.32,1.35-6.88v-7.51l-22.69.6Z"></path><path class="cls-5" d="M665.15,12.87h15.25v113.24h-15.25V12.87Z"></path><path class="cls-5" d="M723.94,100.26l-9.47,25.85h-16l39.3-107.68h18.94l39.22,107.68h-16.91l-9.24-25.85h-45.84ZM746.85,35.94l-17.73,49.82h35.54l-17.81-49.82Z"></path><path class="cls-5" d="M825.06,125.81c-3.83-1.1-7.14-2.6-9.92-4.51-2.78-1.9-4.99-4.14-6.61-6.72-1.63-2.58-2.59-5.35-2.89-8.3h16.08c.35,1.3.98,2.48,1.88,3.53.9,1.05,2.04,1.98,3.42,2.78,1.38.8,3.02,1.43,4.92,1.88,1.9.45,4.06.68,6.46.68h2.86c2.5,0,4.82-.25,6.95-.75,2.13-.5,3.93-1.21,5.41-2.14,1.48-.93,2.63-2.05,3.46-3.38.83-1.33,1.24-2.82,1.24-4.47,0-1.4-.26-2.62-.79-3.64-.53-1.03-1.27-1.9-2.22-2.63-.95-.73-2.12-1.35-3.49-1.88-1.38-.53-2.84-.96-4.4-1.31l-16.76-3.76c-3.46-.85-6.59-1.89-9.39-3.12-2.81-1.23-5.2-2.72-7.18-4.47-1.98-1.75-3.48-3.78-4.51-6.09-1.03-2.3-1.54-4.98-1.54-8.04,0-3.36.73-6.42,2.18-9.2,1.45-2.78,3.48-5.15,6.09-7.1,2.6-1.95,5.74-3.47,9.39-4.55,3.66-1.08,7.69-1.62,12.1-1.62h3.83c4.31,0,8.2.5,11.68,1.5,3.48,1,6.49,2.42,9.02,4.25,2.53,1.83,4.57,4,6.12,6.5,1.55,2.51,2.55,5.24,3.01,8.19h-16.16c-.35-1.4-.98-2.62-1.88-3.64-.9-1.03-2.02-1.87-3.34-2.52-1.33-.65-2.82-1.14-4.47-1.47-1.65-.33-3.38-.49-5.18-.49h-2.93c-2,0-3.91.24-5.71.71-1.8.48-3.34,1.14-4.62,1.99-1.28.85-2.28,1.85-3.01,3.01-.73,1.15-1.09,2.45-1.09,3.91,0,1.25.24,2.33.71,3.23.48.9,1.14,1.68,1.99,2.33.85.65,1.88,1.2,3.08,1.65,1.2.45,2.48.85,3.83,1.2l17.21,3.91c3.66.85,6.94,1.92,9.84,3.19,2.9,1.28,5.4,2.82,7.48,4.62,2.08,1.8,3.64,3.91,4.7,6.31,1.05,2.4,1.58,5.26,1.58,8.57s-.78,6.63-2.33,9.51c-1.55,2.88-3.75,5.36-6.57,7.44-2.83,2.08-6.24,3.69-10.22,4.85-3.98,1.15-8.4,1.73-13.26,1.73h-3.23c-4.71,0-8.98-.55-12.81-1.65Z"></path><path class="cls-5" d="M894.55,29.22c-1.1-.48-2.08-1.13-2.93-1.95-.85-.83-1.52-1.8-1.99-2.93-.48-1.13-.71-2.32-.71-3.57s.24-2.5.71-3.61c.48-1.1,1.13-2.08,1.95-2.93.83-.85,1.8-1.51,2.93-1.99,1.13-.48,2.34-.71,3.64-.71s2.43.24,3.53.71c1.1.48,2.07,1.13,2.89,1.95.83.83,1.49,1.8,1.99,2.93.5,1.13.75,2.32.75,3.57s-.25,2.52-.75,3.64c-.5,1.13-1.16,2.1-1.99,2.93-.83.83-1.78,1.48-2.86,1.95-1.08.48-2.24.71-3.49.71-1.35,0-2.58-.24-3.68-.71ZM890.57,48.34h15.1v77.77h-15.1V48.34Z"></path><path class="cls-5" d="M995.06,126.86c-2.15,0-4.1-.19-5.82-.56-1.73-.38-3.26-.89-4.58-1.54-1.33-.65-2.47-1.47-3.42-2.44-.95-.98-1.75-2.07-2.4-3.27-1.15,1.3-2.58,2.48-4.28,3.53-1.7,1.05-3.58,1.93-5.64,2.63-2.05.7-4.23,1.25-6.54,1.65-2.3.4-4.68.6-7.14.6h-2.18c-4.01,0-7.81-.53-11.42-1.58-3.61-1.05-6.76-2.59-9.47-4.62-2.71-2.03-4.85-4.5-6.42-7.4-1.58-2.9-2.37-6.24-2.37-9.99s.61-7.03,1.84-9.96c1.23-2.93,3.07-5.43,5.52-7.51,2.45-2.08,5.5-3.69,9.13-4.85,3.63-1.15,7.85-1.75,12.66-1.8l22.92-.6v-5.03c0-2.35-.45-4.45-1.35-6.27-.9-1.83-2.12-3.36-3.64-4.58-1.53-1.23-3.28-2.14-5.26-2.74-1.98-.6-4.07-.9-6.27-.9h-1.43c-1.65,0-3.32.19-5,.56-1.68.38-3.17.91-4.47,1.62-1.3.7-2.45,1.52-3.46,2.44-1,.93-1.7,1.99-2.1,3.19h-16.16c.65-3.11,1.88-5.92,3.68-8.45,1.8-2.53,4.06-4.66,6.76-6.39,2.71-1.73,5.81-3.07,9.32-4.02,3.51-.95,7.26-1.43,11.27-1.43h1.58c4.56,0,8.79.64,12.7,1.92,3.91,1.28,7.3,3.13,10.18,5.56,2.88,2.43,5.13,5.45,6.76,9.05,1.63,3.61,2.44,7.74,2.44,12.4v31.18c0,2.46.59,4.28,1.77,5.49,1.18,1.2,2.92,1.8,5.22,1.8h2.48v12.32h-5.41ZM952.76,91.55c-2.2.1-4.17.44-5.9,1.01-1.73.58-3.21,1.37-4.43,2.37-1.23,1-2.15,2.2-2.78,3.61-.63,1.4-.94,2.96-.94,4.66,0,1.9.4,3.58,1.2,5.03.8,1.45,1.89,2.68,3.27,3.68,1.38,1,3.06,1.77,5.03,2.29,1.98.53,4.1.79,6.35.79h1.65c2.96,0,5.62-.38,8-1.13,2.38-.75,4.4-1.85,6.05-3.31,1.65-1.45,2.93-3.19,3.83-5.22.9-2.03,1.35-4.32,1.35-6.88v-7.51l-22.69.6Z"></path><path class="cls-5" d="M1016.55,48.34h14.43l.75,9.62c.75-1.1,1.75-2.29,3.01-3.57,1.25-1.28,2.79-2.47,4.62-3.57,1.83-1.1,3.94-2.02,6.35-2.74,2.4-.73,5.16-1.09,8.27-1.09,4.51,0,8.64.68,12.4,2.03s6.99,3.36,9.69,6.01c2.7,2.66,4.82,5.95,6.35,9.88,1.53,3.93,2.29,8.43,2.29,13.49v47.71h-15.18v-46.44c0-3.26-.45-6.1-1.35-8.53-.9-2.43-2.17-4.45-3.79-6.05-1.63-1.6-3.53-2.8-5.71-3.61-2.18-.8-4.62-1.2-7.33-1.2-2.96,0-5.64.49-8.04,1.47-2.4.98-4.48,2.4-6.24,4.28-1.75,1.88-3.08,4.18-3.98,6.91-.9,2.73-1.35,5.87-1.35,9.43v43.73h-15.18V48.34Z"></path><path class="cls-2" d="M493.67,280.32c-5.54-2.18-10.4-5.43-14.58-9.77-4.18-4.33-7.46-9.72-9.84-16.16-2.38-6.44-3.57-13.91-3.57-22.43v-7.29c0-8.46,1.2-15.93,3.61-22.39,2.4-6.46,5.72-11.86,9.96-16.19,4.23-4.33,9.14-7.59,14.73-9.77,5.59-2.18,11.53-3.27,17.85-3.27,3.96,0,7.69.31,11.2.94,3.51.63,6.75,1.55,9.73,2.78,2.98,1.23,5.66,2.77,8.04,4.62,2.38,1.85,4.51,4.01,6.39,6.46,1.88,2.46,3.48,5.22,4.81,8.3,1.33,3.08,2.32,6.45,2.97,10.11h-16.98c-.75-3.11-1.85-5.81-3.31-8.12-1.45-2.3-3.27-4.25-5.45-5.82-2.18-1.58-4.71-2.75-7.59-3.53-2.88-.78-6.12-1.16-9.73-1.16-4.11,0-8,.73-11.68,2.18-3.68,1.45-6.88,3.68-9.58,6.69-2.71,3.01-4.82,6.8-6.35,11.38-1.53,4.58-2.29,9.98-2.29,16.19v8.49c0,6.11.76,11.47,2.29,16.08,1.53,4.61,3.63,8.42,6.31,11.42,2.68,3.01,5.87,5.25,9.58,6.73,3.71,1.48,7.66,2.22,11.87,2.22,2.25,0,4.38-.18,6.39-.53,2-.35,3.87-.88,5.6-1.58,1.73-.7,3.32-1.56,4.77-2.59,1.45-1.03,2.75-2.24,3.91-3.64,1.15-1.4,2.17-2.96,3.04-4.66.88-1.7,1.62-3.61,2.22-5.71h16.98c-.85,3.66-1.97,7.03-3.34,10.11-1.38,3.08-3.03,5.86-4.96,8.34-1.93,2.48-4.09,4.65-6.5,6.5-2.4,1.85-5.09,3.39-8.04,4.62-2.96,1.23-6.16,2.15-9.62,2.78-3.46.63-7.24.94-11.35.94-6.11,0-11.94-1.09-17.47-3.27Z"></path><path class="cls-2" d="M573.28,168.85h15.18v45.38c1.15-1.5,2.45-2.93,3.91-4.28,1.45-1.35,3.12-2.55,5-3.61,1.88-1.05,3.98-1.88,6.31-2.48,2.33-.6,4.92-.9,7.78-.9,4.41,0,8.45.73,12.13,2.18,3.68,1.45,6.84,3.51,9.47,6.16,2.63,2.66,4.68,5.9,6.16,9.73,1.48,3.83,2.22,8.15,2.22,12.96v48.09h-15.18v-46.06c0-3.11-.43-5.89-1.28-8.34-.85-2.45-2.05-4.52-3.61-6.2-1.55-1.68-3.43-2.97-5.64-3.87-2.2-.9-4.71-1.35-7.51-1.35-3.21,0-6.04.51-8.49,1.54-2.46,1.03-4.53,2.52-6.24,4.47-1.7,1.95-2.97,4.35-3.79,7.18-.83,2.83-1.24,6.07-1.24,9.73v42.91h-15.18v-113.24Z"></path><path class="cls-2" d="M731.23,282.84c-2.15,0-4.1-.19-5.82-.56-1.73-.38-3.26-.89-4.58-1.54-1.33-.65-2.47-1.47-3.42-2.44-.95-.98-1.75-2.07-2.4-3.27-1.15,1.3-2.58,2.48-4.28,3.53-1.7,1.05-3.58,1.93-5.64,2.63-2.05.7-4.23,1.25-6.54,1.65-2.3.4-4.68.6-7.14.6h-2.18c-4.01,0-7.81-.53-11.42-1.58-3.61-1.05-6.76-2.59-9.47-4.62-2.71-2.03-4.85-4.5-6.42-7.4-1.58-2.9-2.37-6.24-2.37-9.99s.61-7.03,1.84-9.96c1.23-2.93,3.07-5.43,5.52-7.51,2.45-2.08,5.5-3.69,9.13-4.85,3.63-1.15,7.85-1.75,12.66-1.8l22.92-.6v-5.03c0-2.35-.45-4.45-1.35-6.27-.9-1.83-2.12-3.36-3.64-4.58-1.53-1.23-3.28-2.14-5.26-2.74-1.98-.6-4.07-.9-6.27-.9h-1.43c-1.65,0-3.32.19-5,.56-1.68.38-3.17.91-4.47,1.62-1.3.7-2.45,1.52-3.46,2.44-1,.93-1.7,1.99-2.1,3.19h-16.16c.65-3.11,1.88-5.92,3.68-8.45,1.8-2.53,4.06-4.66,6.76-6.39,2.71-1.73,5.81-3.07,9.32-4.02,3.51-.95,7.26-1.43,11.27-1.43h1.58c4.56,0,8.79.64,12.7,1.92,3.91,1.28,7.3,3.13,10.18,5.56,2.88,2.43,5.13,5.45,6.76,9.05,1.63,3.61,2.44,7.74,2.44,12.4v31.18c0,2.46.59,4.28,1.77,5.49,1.18,1.2,2.92,1.8,5.22,1.8h2.48v12.32h-5.41ZM688.92,247.52c-2.2.1-4.17.44-5.9,1.01-1.73.58-3.21,1.37-4.43,2.37-1.23,1-2.15,2.2-2.78,3.61-.63,1.4-.94,2.96-.94,4.66,0,1.9.4,3.58,1.2,5.03.8,1.45,1.89,2.68,3.27,3.68,1.38,1,3.06,1.77,5.03,2.29,1.98.53,4.1.79,6.35.79h1.65c2.96,0,5.62-.38,8-1.13,2.38-.75,4.4-1.85,6.05-3.31,1.65-1.45,2.93-3.19,3.83-5.22.9-2.03,1.35-4.32,1.35-6.88v-7.51l-22.69.6Z"></path><path class="cls-2" d="M752.72,204.31h14.65l.75,10.52c.65-1.05,1.55-2.27,2.71-3.64,1.15-1.38,2.6-2.67,4.36-3.87,1.75-1.2,3.82-2.23,6.2-3.08,2.38-.85,5.15-1.28,8.3-1.28s6.09.43,8.49,1.28c2.4.85,4.47,1.9,6.2,3.16,1.73,1.25,3.16,2.59,4.28,4.02,1.13,1.43,2.04,2.69,2.74,3.79.85-1.1,1.95-2.37,3.31-3.79,1.35-1.43,3.07-2.77,5.15-4.02,2.08-1.25,4.47-2.3,7.18-3.16,2.7-.85,5.81-1.28,9.32-1.28,5.46,0,10.06.83,13.79,2.48,3.73,1.65,6.74,3.88,9.02,6.69,2.28,2.81,3.91,6,4.88,9.58.98,3.58,1.47,7.28,1.47,11.08v49.29h-15.4v-48.39c0-2.96-.35-5.52-1.05-7.7-.7-2.18-1.72-4.01-3.04-5.49-1.33-1.48-2.94-2.59-4.85-3.34-1.9-.75-4.03-1.13-6.39-1.13-3.01,0-5.62.5-7.85,1.5-2.23,1-4.09,2.43-5.6,4.28-1.5,1.85-2.64,4.12-3.42,6.8-.78,2.68-1.16,5.7-1.16,9.05v44.41h-15.33v-48.54c0-2.86-.39-5.38-1.16-7.59-.78-2.2-1.85-4.03-3.23-5.49-1.38-1.45-3.04-2.55-5-3.31s-4.11-1.13-6.46-1.13c-2.91,0-5.45.5-7.63,1.5-2.18,1-4,2.43-5.45,4.28-1.45,1.85-2.54,4.12-3.27,6.8-.73,2.68-1.09,5.7-1.09,9.05v44.41h-15.4v-77.77Z"></path><path class="cls-2" d="M923.11,282.72c-2.4-.48-4.7-1.14-6.88-1.99-2.18-.85-4.2-1.89-6.05-3.12-1.85-1.23-3.43-2.54-4.73-3.95v8.42h-14.88v-113.24h14.88v43.88c1.3-1.4,2.87-2.72,4.7-3.94,1.83-1.23,3.83-2.27,6.01-3.12,2.18-.85,4.47-1.51,6.88-1.99,2.4-.48,4.83-.71,7.29-.71,5.51,0,10.54,1.01,15.1,3.04,4.56,2.03,8.46,4.82,11.72,8.38,3.26,3.56,5.76,7.74,7.51,12.55,1.75,4.81,2.63,10.02,2.63,15.63v1.95c0,5.41-.88,10.48-2.63,15.22-1.75,4.73-4.26,8.87-7.51,12.4-3.26,3.53-7.15,6.3-11.68,8.3-4.53,2-9.56,3.01-15.07,3.01-2.45,0-4.88-.24-7.29-.71ZM938.14,269.16c2.8-1.3,5.22-3.12,7.25-5.45,2.03-2.33,3.59-5.12,4.7-8.38,1.1-3.26,1.65-6.86,1.65-10.82v-2.55c0-4.01-.55-7.64-1.65-10.9-1.1-3.26-2.67-6.05-4.7-8.38-2.03-2.33-4.45-4.14-7.25-5.45-2.81-1.3-5.86-1.95-9.17-1.95-3.56,0-6.79.65-9.69,1.95-2.91,1.3-5.39,3.12-7.44,5.45-2.05,2.33-3.63,5.14-4.73,8.42-1.1,3.28-1.65,6.88-1.65,10.78v2.71c0,3.91.55,7.49,1.65,10.74,1.1,3.26,2.68,6.05,4.73,8.38,2.05,2.33,4.53,4.15,7.44,5.45,2.9,1.3,6.11,1.95,9.62,1.95s6.44-.65,9.24-1.95Z"></path><path class="cls-2" d="M1002.52,280.51c-4.63-1.95-8.6-4.62-11.91-8-3.31-3.38-5.85-7.41-7.63-12.1-1.78-4.68-2.67-9.76-2.67-15.22v-3.91c0-5.51.89-10.61,2.67-15.29,1.78-4.68,4.32-8.72,7.63-12.1,3.31-3.38,7.3-6.05,11.98-8,4.68-1.95,9.86-2.93,15.52-2.93s10.43.94,14.77,2.82c4.33,1.88,8.03,4.5,11.08,7.85,3.06,3.36,5.4,7.39,7.03,12.1,1.63,4.71,2.44,9.84,2.44,15.4v6.31h-57.71v1.88c0,2.76.5,5.44,1.5,8.04,1,2.61,2.45,4.9,4.36,6.88,1.9,1.98,4.25,3.59,7.03,4.85,2.78,1.25,5.9,1.88,9.36,1.88,2.65,0,5-.3,7.03-.9,2.03-.6,3.77-1.33,5.22-2.18,1.45-.85,2.65-1.8,3.61-2.86.95-1.05,1.65-1.98,2.1-2.78h16.23c-.9,2.61-2.32,5.17-4.25,7.7-1.93,2.53-4.31,4.78-7.14,6.76-2.83,1.98-6.16,3.59-9.99,4.85-3.83,1.25-8.1,1.88-12.81,1.88-5.66,0-10.81-.98-15.44-2.93ZM1036.48,227.83c-.88-2.5-2.18-4.67-3.91-6.5-1.73-1.83-3.86-3.27-6.39-4.32-2.53-1.05-5.45-1.58-8.75-1.58s-6.04.55-8.64,1.65c-2.61,1.1-4.87,2.59-6.8,4.47-1.93,1.88-3.43,4.06-4.51,6.54-1.08,2.48-1.67,5.07-1.77,7.78h42.23c-.1-2.86-.59-5.53-1.47-8.04Z"></path><path class="cls-2" d="M1072.74,204.31h15.03l.15,9.69c1-1.75,2.25-3.28,3.76-4.58,1.5-1.3,3.26-2.37,5.26-3.19,2-.83,4.21-1.44,6.61-1.84,2.4-.4,4.98-.6,7.74-.6h5.71v12.17h-4.28c-4.76,0-8.73.58-11.91,1.73-3.18,1.15-5.72,2.79-7.63,4.92-1.9,2.13-3.26,4.72-4.06,7.78-.8,3.06-1.2,6.54-1.2,10.44v41.25h-15.18v-77.77Z"></path><path class="cls-2" d="M1194.03,280.51c-4.68-1.95-8.64-4.67-11.87-8.15-3.23-3.48-5.67-7.61-7.33-12.4-1.65-4.78-2.48-9.98-2.48-15.59v-2.33c0-5.61.83-10.81,2.48-15.59,1.65-4.78,4.09-8.92,7.33-12.4,3.23-3.48,7.19-6.2,11.87-8.15,4.68-1.95,10.06-2.93,16.12-2.93s11.37.98,16.08,2.93c4.71,1.95,8.68,4.67,11.91,8.15,3.23,3.48,5.69,7.61,7.36,12.4,1.68,4.78,2.52,9.98,2.52,15.59v2.33c0,5.61-.84,10.81-2.52,15.59-1.68,4.78-4.13,8.92-7.36,12.4-3.23,3.48-7.2,6.2-11.91,8.15-4.71,1.95-10.07,2.93-16.08,2.93s-11.43-.98-16.12-2.93ZM1219.5,269.12c2.78-1.23,5.15-2.98,7.1-5.26,1.95-2.28,3.46-5.06,4.51-8.34,1.05-3.28,1.58-6.98,1.58-11.08v-2.48c0-4.16-.53-7.88-1.58-11.16-1.05-3.28-2.55-6.06-4.51-8.34-1.95-2.28-4.32-4.02-7.1-5.22-2.78-1.2-5.9-1.8-9.35-1.8s-6.64.6-9.39,1.8c-2.76,1.2-5.1,2.94-7.03,5.22-1.93,2.28-3.42,5.06-4.47,8.34-1.05,3.28-1.58,7-1.58,11.16v2.48c0,4.11.53,7.8,1.58,11.08,1.05,3.28,2.54,6.06,4.47,8.34,1.93,2.28,4.27,4.03,7.03,5.26,2.75,1.23,5.89,1.84,9.39,1.84s6.57-.61,9.35-1.84Z"></path><path class="cls-2" d="M1269.4,216.41h-14.05v-12.1h14.05v-11.57c0-3.51.48-6.73,1.43-9.66.95-2.93,2.45-5.45,4.51-7.55,2.05-2.1,4.67-3.74,7.85-4.92,3.18-1.18,6.98-1.77,11.38-1.77h9.99v12.1h-8.42c-2.1,0-3.9.31-5.37.94-1.48.63-2.68,1.47-3.61,2.52-.93,1.05-1.6,2.25-2.03,3.61-.43,1.35-.64,2.88-.64,4.58v11.72h19.61v12.1h-19.61v65.67h-15.1v-65.67Z"></path><path class="cls-2" d="M493.67,432.09c-5.54-2.18-10.4-5.43-14.58-9.77-4.18-4.33-7.46-9.72-9.84-16.16-2.38-6.44-3.57-13.91-3.57-22.43v-7.29c0-8.46,1.2-15.93,3.61-22.39,2.4-6.46,5.72-11.86,9.96-16.19,4.23-4.33,9.14-7.59,14.73-9.77,5.59-2.18,11.53-3.27,17.85-3.27,3.96,0,7.69.31,11.2.94,3.51.63,6.75,1.55,9.73,2.78,2.98,1.23,5.66,2.77,8.04,4.62,2.38,1.85,4.51,4.01,6.39,6.46,1.88,2.46,3.48,5.22,4.81,8.3,1.33,3.08,2.32,6.45,2.97,10.11h-16.98c-.75-3.11-1.85-5.81-3.31-8.12-1.45-2.3-3.27-4.25-5.45-5.82-2.18-1.58-4.71-2.75-7.59-3.53-2.88-.78-6.12-1.16-9.73-1.16-4.11,0-8,.73-11.68,2.18-3.68,1.45-6.88,3.68-9.58,6.69-2.71,3.01-4.82,6.8-6.35,11.38-1.53,4.58-2.29,9.98-2.29,16.19v8.49c0,6.11.76,11.47,2.29,16.08,1.53,4.61,3.63,8.42,6.31,11.42,2.68,3.01,5.87,5.25,9.58,6.73,3.71,1.48,7.66,2.22,11.87,2.22,2.25,0,4.38-.18,6.39-.53,2-.35,3.87-.88,5.6-1.58,1.73-.7,3.32-1.56,4.77-2.59,1.45-1.03,2.75-2.24,3.91-3.64,1.15-1.4,2.17-2.96,3.04-4.66.88-1.7,1.62-3.61,2.22-5.71h16.98c-.85,3.66-1.97,7.03-3.34,10.11-1.38,3.08-3.03,5.86-4.96,8.34-1.93,2.48-4.09,4.65-6.5,6.5-2.4,1.85-5.09,3.39-8.04,4.62-2.96,1.23-6.16,2.15-9.62,2.78-3.46.63-7.24.94-11.35.94-6.11,0-11.94-1.09-17.47-3.27Z"></path><path class="cls-2" d="M589.7,432.27c-4.68-1.95-8.64-4.67-11.87-8.15-3.23-3.48-5.67-7.61-7.33-12.4-1.65-4.78-2.48-9.98-2.48-15.59v-2.33c0-5.61.83-10.81,2.48-15.59,1.65-4.78,4.09-8.92,7.33-12.4,3.23-3.48,7.19-6.2,11.87-8.15,4.68-1.95,10.06-2.93,16.12-2.93s11.37.98,16.08,2.93c4.71,1.95,8.68,4.67,11.91,8.15,3.23,3.48,5.69,7.61,7.36,12.4,1.68,4.78,2.52,9.98,2.52,15.59v2.33c0,5.61-.84,10.81-2.52,15.59-1.68,4.78-4.13,8.92-7.36,12.4-3.23,3.48-7.2,6.2-11.91,8.15-4.71,1.95-10.07,2.93-16.08,2.93s-11.43-.98-16.12-2.93ZM615.17,420.89c2.78-1.23,5.15-2.98,7.1-5.26,1.95-2.28,3.46-5.06,4.51-8.34,1.05-3.28,1.58-6.98,1.58-11.08v-2.48c0-4.16-.53-7.88-1.58-11.16-1.05-3.28-2.55-6.06-4.51-8.34-1.95-2.28-4.32-4.02-7.1-5.22-2.78-1.2-5.9-1.8-9.35-1.8s-6.64.6-9.39,1.8c-2.76,1.2-5.1,2.94-7.03,5.22-1.93,2.28-3.42,5.06-4.47,8.34-1.05,3.28-1.58,7-1.58,11.16v2.48c0,4.11.53,7.8,1.58,11.08,1.05,3.28,2.54,6.06,4.47,8.34,1.93,2.28,4.27,4.03,7.03,5.26,2.75,1.23,5.89,1.84,9.39,1.84s6.57-.61,9.35-1.84Z"></path><path class="cls-2" d="M661.1,356.08h14.65l.75,10.52c.65-1.05,1.55-2.27,2.71-3.64,1.15-1.38,2.6-2.67,4.36-3.87,1.75-1.2,3.82-2.23,6.2-3.08,2.38-.85,5.15-1.28,8.3-1.28s6.09.43,8.49,1.28c2.4.85,4.47,1.9,6.2,3.16,1.73,1.25,3.16,2.59,4.28,4.02,1.13,1.43,2.04,2.69,2.74,3.79.85-1.1,1.95-2.37,3.31-3.79,1.35-1.43,3.07-2.77,5.15-4.02,2.08-1.25,4.47-2.3,7.18-3.16,2.7-.85,5.81-1.28,9.32-1.28,5.46,0,10.06.83,13.79,2.48,3.73,1.65,6.74,3.88,9.02,6.69,2.28,2.81,3.91,6,4.88,9.58.98,3.58,1.47,7.28,1.47,11.08v49.29h-15.4v-48.39c0-2.96-.35-5.52-1.05-7.7-.7-2.18-1.72-4.01-3.04-5.49-1.33-1.48-2.94-2.59-4.85-3.34-1.9-.75-4.03-1.13-6.39-1.13-3.01,0-5.62.5-7.85,1.5-2.23,1-4.09,2.43-5.6,4.28-1.5,1.85-2.64,4.12-3.42,6.8-.78,2.68-1.16,5.7-1.16,9.05v44.41h-15.33v-48.54c0-2.86-.39-5.38-1.16-7.59-.78-2.2-1.85-4.03-3.23-5.49-1.38-1.45-3.04-2.55-5-3.31-1.95-.75-4.11-1.13-6.46-1.13-2.91,0-5.45.5-7.63,1.5-2.18,1-4,2.43-5.45,4.28-1.45,1.85-2.54,4.12-3.27,6.8-.73,2.68-1.09,5.7-1.09,9.05v44.41h-15.4v-77.77Z"></path><path class="cls-2" d="M795.42,356.08h14.65l.75,10.52c.65-1.05,1.55-2.27,2.71-3.64,1.15-1.38,2.6-2.67,4.36-3.87,1.75-1.2,3.82-2.23,6.2-3.08,2.38-.85,5.15-1.28,8.3-1.28s6.09.43,8.49,1.28c2.4.85,4.47,1.9,6.2,3.16,1.73,1.25,3.16,2.59,4.28,4.02,1.13,1.43,2.04,2.69,2.74,3.79.85-1.1,1.95-2.37,3.31-3.79,1.35-1.43,3.07-2.77,5.15-4.02,2.08-1.25,4.47-2.3,7.18-3.16,2.7-.85,5.81-1.28,9.32-1.28,5.46,0,10.06.83,13.79,2.48,3.73,1.65,6.74,3.88,9.02,6.69,2.28,2.81,3.91,6,4.88,9.58.98,3.58,1.47,7.28,1.47,11.08v49.29h-15.4v-48.39c0-2.96-.35-5.52-1.05-7.7-.7-2.18-1.72-4.01-3.04-5.49-1.33-1.48-2.94-2.59-4.85-3.34-1.9-.75-4.03-1.13-6.39-1.13-3.01,0-5.62.5-7.85,1.5-2.23,1-4.09,2.43-5.6,4.28-1.5,1.85-2.64,4.12-3.42,6.8-.78,2.68-1.16,5.7-1.16,9.05v44.41h-15.33v-48.54c0-2.86-.39-5.38-1.16-7.59-.78-2.2-1.85-4.03-3.23-5.49-1.38-1.45-3.04-2.55-5-3.31-1.95-.75-4.11-1.13-6.46-1.13-2.91,0-5.45.5-7.63,1.5-2.18,1-4,2.43-5.45,4.28-1.45,1.85-2.54,4.12-3.27,6.8-.73,2.68-1.09,5.7-1.09,9.05v44.41h-15.4v-77.77Z"></path><path class="cls-2" d="M946.85,432.27c-4.63-1.95-8.6-4.62-11.91-8-3.31-3.38-5.85-7.41-7.63-12.1-1.78-4.68-2.67-9.76-2.67-15.22v-3.91c0-5.51.89-10.61,2.67-15.29,1.78-4.68,4.32-8.72,7.63-12.1,3.31-3.38,7.3-6.05,11.98-8,4.68-1.95,9.86-2.93,15.52-2.93s10.43.94,14.77,2.82c4.33,1.88,8.03,4.5,11.08,7.85,3.06,3.36,5.4,7.39,7.03,12.1,1.63,4.71,2.44,9.84,2.44,15.4v6.31h-57.71v1.88c0,2.76.5,5.44,1.5,8.04,1,2.61,2.45,4.9,4.36,6.88,1.9,1.98,4.25,3.59,7.03,4.85,2.78,1.25,5.9,1.88,9.36,1.88,2.65,0,5-.3,7.03-.9,2.03-.6,3.77-1.33,5.22-2.18,1.45-.85,2.65-1.8,3.61-2.86.95-1.05,1.65-1.98,2.1-2.78h16.23c-.9,2.61-2.32,5.17-4.25,7.7-1.93,2.53-4.31,4.78-7.14,6.76-2.83,1.98-6.16,3.59-9.99,4.85-3.83,1.25-8.1,1.88-12.81,1.88-5.66,0-10.81-.98-15.44-2.93ZM980.81,379.6c-.88-2.5-2.18-4.67-3.91-6.5-1.73-1.83-3.86-3.27-6.39-4.32-2.53-1.05-5.45-1.58-8.75-1.58s-6.04.55-8.64,1.65c-2.61,1.1-4.87,2.59-6.8,4.47-1.93,1.88-3.43,4.06-4.51,6.54-1.08,2.48-1.67,5.07-1.77,7.78h42.23c-.1-2.86-.59-5.53-1.47-8.04Z"></path><path class="cls-2" d="M1017.06,356.08h15.03l.15,9.69c1-1.75,2.25-3.28,3.76-4.58,1.5-1.3,3.26-2.37,5.26-3.19,2-.83,4.21-1.44,6.61-1.84,2.4-.4,4.98-.6,7.74-.6h5.71v12.17h-4.28c-4.76,0-8.73.58-11.91,1.73-3.18,1.15-5.72,2.79-7.63,4.92-1.9,2.13-3.26,4.72-4.06,7.78-.8,3.06-1.2,6.54-1.2,10.44v41.25h-15.18v-77.77Z"></path><path class="cls-2" d="M1090.4,432.5c-4.46-1.8-8.29-4.41-11.5-7.81-3.21-3.41-5.67-7.55-7.4-12.44-1.73-4.88-2.59-10.38-2.59-16.49v-1.58c0-5.61.79-10.82,2.37-15.63,1.58-4.81,3.92-8.97,7.03-12.47,3.11-3.51,6.99-6.27,11.65-8.3,4.66-2.03,10.07-3.04,16.23-3.04,4.46,0,8.55.51,12.29,1.54,3.73,1.03,7.01,2.58,9.84,4.66,2.83,2.08,5.2,4.65,7.1,7.7,1.9,3.06,3.23,6.64,3.98,10.74h-16.08c-.5-1.95-1.25-3.68-2.25-5.18-1-1.5-2.25-2.77-3.76-3.79-1.5-1.03-3.23-1.82-5.18-2.37-1.95-.55-4.13-.83-6.54-.83-3.76,0-6.98.76-9.66,2.29-2.68,1.53-4.87,3.56-6.57,6.09-1.7,2.53-2.96,5.39-3.76,8.57-.8,3.18-1.2,6.42-1.2,9.73v2.18c0,4.46.55,8.34,1.65,11.65,1.1,3.31,2.62,6.09,4.55,8.34,1.93,2.25,4.2,3.93,6.8,5.03,2.6,1.1,5.41,1.65,8.42,1.65,2.2,0,4.25-.26,6.12-.79,1.88-.53,3.58-1.29,5.11-2.29,1.53-1,2.84-2.25,3.95-3.76,1.1-1.5,1.98-3.28,2.63-5.33h16.08c-1.1,4.06-2.67,7.63-4.7,10.71-2.03,3.08-4.48,5.66-7.36,7.74-2.88,2.08-6.2,3.63-9.96,4.66-3.76,1.03-7.92,1.54-12.47,1.54-5.41,0-10.34-.9-14.8-2.71Z"></path><path class="cls-2" d="M1176.72,432.27c-4.63-1.95-8.6-4.62-11.91-8-3.31-3.38-5.85-7.41-7.63-12.1-1.78-4.68-2.67-9.76-2.67-15.22v-3.91c0-5.51.89-10.61,2.67-15.29,1.78-4.68,4.32-8.72,7.63-12.1,3.31-3.38,7.3-6.05,11.98-8,4.68-1.95,9.86-2.93,15.52-2.93s10.43.94,14.77,2.82c4.33,1.88,8.03,4.5,11.08,7.85,3.06,3.36,5.4,7.39,7.03,12.1,1.63,4.71,2.44,9.84,2.44,15.4v6.31h-57.71v1.88c0,2.76.5,5.44,1.5,8.04,1,2.61,2.45,4.9,4.36,6.88,1.9,1.98,4.25,3.59,7.03,4.85,2.78,1.25,5.9,1.88,9.36,1.88,2.65,0,5-.3,7.03-.9,2.03-.6,3.77-1.33,5.22-2.18,1.45-.85,2.65-1.8,3.61-2.86.95-1.05,1.65-1.98,2.1-2.78h16.23c-.9,2.61-2.32,5.17-4.25,7.7-1.93,2.53-4.31,4.78-7.14,6.76-2.83,1.98-6.16,3.59-9.99,4.85-3.83,1.25-8.1,1.88-12.81,1.88-5.66,0-10.81-.98-15.44-2.93ZM1210.69,379.6c-.88-2.5-2.18-4.67-3.91-6.5-1.73-1.83-3.86-3.27-6.39-4.32-2.53-1.05-5.45-1.58-8.75-1.58s-6.04.55-8.64,1.65c-2.61,1.1-4.87,2.59-6.8,4.47-1.93,1.88-3.43,4.06-4.51,6.54-1.08,2.48-1.67,5.07-1.77,7.78h42.23c-.1-2.86-.59-5.53-1.47-8.04Z"></path><path class="cls-3" d="M216.77,444.27h1.65c-15.9-50.03-62.18-85.98-111.33-85.98h-63.01c42.95,54.84,109.31,86.92,172.69,85.98Z"></path><path class="cls-2" d="M330.64,307.26c27.72,37.89,42.37,84.16,42.37,133.8v1.78c0,.47,0,.98,0,1.48l49.79-.04c.01-2.25.01-5.16.01-6.06,0-109.76-81.44-196.69-187.75-203.47,38.54,14.58,71.34,39.41,95.56,72.53Z"></path><path class="cls-4" d="M239.07,444.23h50.79c-4.3-39.45-22.95-76.49-52.73-104.6-30.88-29.15-70.29-45.2-110.95-45.2H9.46c5.45,16.18,12.84,31.67,22.01,46.11h76.85c29.58.27,59.2,11.44,83.42,31.44,22.98,18.98,39.73,44.58,47.32,72.26Z"></path><path class="cls-1" d="M308.4,444.27h47.9c0-.15,0-.3-.01-.45-.04-1.31-.07-2.56-.07-2.76,0-113.98-92.51-206.71-206.21-206.71-2.33,0-130.23-.07-150.01-.08.18,14.54,1.88,27.82,5.44,42.44,15.88,0,122.2-.05,122.39-.05,45.3,0,88.96,17.88,122.94,50.34,32.89,31.42,53.3,72.99,57.64,117.28Z"></path></svg>