<svg width="1295" height="212" viewBox="0 0 1295 212" fill="none" xmlns="http://www.w3.org/2000/svg">
<path d="M342.31 131.795H288.305C288.702 138.467 291.009 143.701 295.145 147.457C299.281 151.212 304.331 153.09 310.257 153.09C315.108 153.09 319.165 151.971 322.386 149.694C325.647 147.417 327.914 144.38 329.226 140.585H341.315C339.486 147.097 335.907 152.411 330.459 156.486C325.05 160.561 318.29 162.599 310.257 162.599C303.854 162.599 298.127 161.16 293.037 158.284C287.987 155.407 284.01 151.292 281.147 145.978C278.283 140.665 276.852 134.472 276.852 127.48C276.852 120.489 278.243 114.296 281.027 109.022C283.811 103.748 287.748 99.6733 292.799 96.8367C297.849 94.0001 303.655 92.5618 310.257 92.5618C316.858 92.5618 322.346 93.9601 327.277 96.7568C332.209 99.5535 336.026 103.429 338.691 108.343C341.355 113.257 342.707 118.811 342.707 125.003C342.707 127.161 342.588 129.438 342.349 131.835L342.31 131.795ZM328.232 111.539C326.323 108.423 323.778 106.106 320.517 104.468C317.256 102.87 313.677 102.07 309.74 102.07C304.053 102.07 299.241 103.868 295.264 107.504C291.287 111.14 288.981 116.174 288.424 122.606H331.095C331.095 118.331 330.141 114.616 328.272 111.539H328.232Z" fill="#1a1a1a"/>
<path d="M388.846 118.411L415.212 161.52H402.526L381.926 127.84L362.321 161.52H349.873L376.12 118.411L349.754 75.1824H362.321L383.04 108.982L402.765 75.1824H415.331L388.806 118.411H388.846Z" fill="#1a1a1a"/>
<path d="M450.864 96.3973C455.278 93.8004 460.368 92.4819 466.214 92.4819C472.06 92.4819 477.667 93.9202 482.559 96.7968C487.45 99.6734 491.308 103.749 494.091 108.982C496.875 114.216 498.267 120.329 498.267 127.241C498.267 134.152 496.875 140.225 494.091 145.579C491.308 150.933 487.45 155.128 482.559 158.084C477.667 161.041 472.219 162.559 466.214 162.559C460.209 162.559 455.397 161.24 450.983 158.643C446.569 156.046 443.228 152.81 440.922 148.935V193.642H429.707V93.5607H440.922V106.066C443.149 102.19 446.449 98.9543 450.864 96.3573V96.3973ZM483.712 113.936C481.644 110.141 478.9 107.264 475.4 105.267C471.901 103.269 468.083 102.31 463.868 102.31C459.652 102.31 455.954 103.309 452.454 105.347C448.955 107.384 446.171 110.301 444.063 114.136C441.956 117.972 440.922 122.406 440.922 127.44C440.922 132.474 441.956 137.029 444.063 140.864C446.171 144.7 448.955 147.616 452.454 149.654C455.954 151.692 459.732 152.69 463.868 152.69C468.004 152.69 471.901 151.692 475.4 149.654C478.9 147.616 481.684 144.7 483.712 140.864C485.74 137.029 486.814 132.514 486.814 127.321C486.814 122.127 485.78 117.732 483.712 113.936Z" fill="#1a1a1a"/>
<path d="M525.948 105.074C529.289 99.0014 533.942 94.247 539.907 90.8511C545.872 87.4551 552.672 85.7771 560.228 85.7771C569.494 85.7771 577.448 88.2542 584.049 93.1683C590.651 98.0825 595.065 104.795 597.292 113.304H576.374C574.823 110.028 572.596 107.511 569.733 105.793C566.87 104.075 563.609 103.236 559.99 103.236C554.144 103.236 549.372 105.274 545.753 109.389C542.094 113.504 540.305 118.978 540.305 125.85C540.305 132.721 542.134 138.195 545.753 142.31C549.372 146.425 554.144 148.463 559.99 148.463C563.609 148.463 566.87 147.624 569.733 145.906C572.596 144.188 574.783 141.711 576.374 138.395H597.292C595.065 146.905 590.651 153.577 584.049 158.491C577.448 163.405 569.494 165.802 560.228 165.802C552.672 165.802 545.872 164.124 539.907 160.728C533.942 157.332 529.289 152.618 525.948 146.585C522.608 140.552 520.938 133.64 520.938 125.889C520.938 118.139 522.608 111.227 525.948 105.154V105.074Z" fill="#1a1a1a"/>
<path d="M626.308 160.848C620.184 157.412 615.332 152.617 611.713 146.465C608.094 140.312 606.305 133.4 606.305 125.729C606.305 118.058 608.094 111.147 611.713 105.034C615.332 98.9211 620.184 94.1667 626.308 90.7308C632.432 87.2949 639.153 85.5769 646.51 85.5769C653.867 85.5769 660.588 87.2949 666.712 90.7308C672.837 94.1667 677.648 98.9211 681.188 105.034C684.727 111.147 686.477 118.058 686.477 125.729C686.477 133.4 684.687 140.312 681.148 146.465C677.569 152.617 672.757 157.412 666.673 160.848C660.588 164.283 653.867 166.001 646.51 166.001C639.153 166.001 632.432 164.283 626.308 160.848ZM661.503 142.27C665.241 138.115 667.11 132.561 667.11 125.729C667.11 118.897 665.241 113.264 661.503 109.109C657.764 104.954 652.754 102.916 646.51 102.916C640.267 102.916 635.176 104.954 631.438 109.069C627.7 113.184 625.831 118.738 625.831 125.729C625.831 132.721 627.7 138.194 631.438 142.349C635.176 146.505 640.227 148.542 646.51 148.542C652.793 148.542 657.725 146.465 661.503 142.27Z" fill="#1a1a1a"/>
<path d="M788.164 86.6956V165.242H769.115V118.138L751.617 165.242H736.267L718.69 118.018V165.242H699.641V86.6956H722.149L744.101 141.071L765.815 86.6956H788.204H788.164Z" fill="#1a1a1a"/>
<path d="M893.695 86.6956V165.242H874.647V118.138L857.149 165.242H841.798L824.221 118.018V165.242H805.172V86.6956H827.681L849.633 141.071L871.346 86.6956H893.735H893.695Z" fill="#1a1a1a"/>
<path d="M929.756 101.997V117.898H955.247V132.681H929.756V149.901H958.588V165.242H910.707V86.6956H958.588V102.037H929.756V101.997Z" fill="#1a1a1a"/>
<path d="M1014.08 165.202L997.818 135.558H993.244V165.202H974.195V86.6558H1006.17C1012.33 86.6558 1017.58 87.7345 1021.92 89.8919C1026.25 92.0493 1029.51 95.0059 1031.66 98.8013C1033.81 102.557 1034.88 106.752 1034.88 111.386C1034.88 116.62 1033.41 121.255 1030.47 125.37C1027.52 129.485 1023.23 132.361 1017.5 134.079L1035.56 165.163H1014.08V165.202ZM993.244 122.014H1005.06C1008.55 122.014 1011.18 121.175 1012.89 119.457C1014.6 117.739 1015.51 115.302 1015.51 112.185C1015.51 109.069 1014.64 106.872 1012.89 105.154C1011.14 103.436 1008.52 102.597 1005.06 102.597H993.244V122.054V122.014Z" fill="#1a1a1a"/>
<path d="M1049.3 105.074C1052.64 99.0009 1057.3 94.2465 1063.26 90.8506C1069.23 87.4546 1076.03 85.7766 1083.58 85.7766C1092.85 85.7766 1100.8 88.2537 1107.4 93.1678C1114.01 98.082 1118.42 104.794 1120.65 113.304H1099.73C1098.18 110.028 1095.95 107.511 1093.09 105.793C1090.22 104.075 1086.96 103.236 1083.35 103.236C1077.5 103.236 1072.73 105.273 1069.11 109.389C1065.45 113.504 1063.66 118.977 1063.66 125.849C1063.66 132.721 1065.49 138.194 1069.11 142.309C1072.73 146.425 1077.5 148.462 1083.35 148.462C1086.96 148.462 1090.22 147.623 1093.09 145.905C1095.95 144.187 1098.14 141.71 1099.73 138.394H1120.65C1118.42 146.904 1114.01 153.576 1107.4 158.49C1100.8 163.404 1092.85 165.802 1083.58 165.802C1076.03 165.802 1069.23 164.124 1063.26 160.728C1057.3 157.332 1052.64 152.617 1049.3 146.584C1045.96 140.552 1044.29 133.64 1044.29 125.889C1044.29 118.138 1045.96 111.226 1049.3 105.154V105.074Z" fill="#1a1a1a"/>
<path d="M1152.94 86.6956V165.242H1133.89V86.6956H1152.94Z" fill="#1a1a1a"/>
<path d="M1216.42 151.339H1187.23L1182.53 165.202H1162.61L1190.88 86.6558H1212.92L1241.19 165.202H1221.03L1216.34 151.339H1216.42ZM1211.52 136.556L1201.82 107.791L1192.24 136.556H1211.48H1211.52Z" fill="#1a1a1a"/>
<path d="M1270.06 150.46H1295V165.242H1251.02V86.6956H1270.06V150.46Z" fill="#1a1a1a"/>
<path d="M116.639 126.533L181.528 212H129.778L90.7113 160.557L51.7497 212H0L160.888 0.0522461H212.62L116.639 126.533Z" fill="#1a1a1a"/>
<path d="M51.7692 41.083H0.0195312L52.3841 110.138L78.2238 76.0076L51.7692 41.083Z" fill="#1a1a1a"/>
<path d="M154.289 125.65L192.97 176.617H241.206L202.526 125.65L241.206 74.7017H192.97L154.289 125.65Z" fill="#1a1a1a"/>
</svg>
